<?xml version="1.0" encoding="UTF-8"?>
<svg width="700pt" height="700pt" version="1.1" viewBox="0 0 700 700" xmlns="http://www.w3.org/2000/svg">
 <g>
  <path d="m597.49 32.52h-424.99l49.5 49.5 177.8 177.77 36.109-57.789c7.2031-11.531 19.008-11.531 26.211 0l110.62 177v53.73l68.285 68.285c3.6875-6.9297 5.9648-14.703 5.9648-23.043v-395.99c0-27.199-22.277-49.473-49.5-49.473z"/>
  <path d="m102.51 527.48h424.99l-74.246-74.246-326-0.003906v-74.246l81.5-81.5c9.6289-9.6289 25.367-9.6289 34.996 0l64 64c9.6289 9.6289 23.387 8.043 30.59-3.4883l7.5977-12.078v-0.023438l-146.12-146.09c-6.9297 3.6875-14.699 5.9648-23.066 5.9648-27.348 0-49.5-22.176-49.5-49.5 0-8.3633 2.2773-16.113 5.9414-23.043l-30.688-30.688-43.535-43.531c-3.6875 6.9023-5.9648 14.676-5.9648 22.988v395.99c0 27.227 22.277 49.5 49.5 49.5z"/>
  <path d="m69.988 35 35.02-35.02 525 525-35.02 35.02z"/>
 </g>
</svg>
