<?xml version="1.0" encoding="UTF-8"?>
<svg width="700pt" height="700pt" version="1.1" viewBox="0 0 700 700" xmlns="http://www.w3.org/2000/svg">
 <g fill-rule="evenodd">
  <path d="m145.84 349.27c-0.875 21.105-1.7148 41.141-2.4648 59.113-1.0703 25.902 8.4688 51.117 26.406 69.824 17.953 18.727 42.754 29.297 68.688 29.297h0.015625c31.555 0 61.391-14.352 81.113-38.988 0 0 30.398-37.996 30.398-37.996s29.574 36.961 29.574 36.961c20.23 25.289 50.875 40.023 83.266 40.023h0.035156c25.586 0 50.051-10.43 67.742-28.891 17.711-18.445 27.125-43.332 26.059-68.883l-6.9141-165.64c-4.4609-107.08-92.559-191.59-199.75-191.59h-0.03125c-94.082 0-173.45 65.117-194.48 153.44-2.2383 9.3945 3.5703 18.848 12.969 21.086 9.3984 2.2383 18.848-3.5703 21.086-12.969 17.344-72.867 82.828-126.56 160.43-126.56h0.03125c88.41 0 161.11 69.719 164.78 158.06l6.8945 165.62c0.68359 16.031-5.2148 31.621-16.328 43.207-11.094 11.566-26.441 18.113-42.488 18.113h-0.035156c-21.754 0-42.352-9.8867-55.949-26.898l-43.223-54.039c-3.3242-4.1484-8.3477-6.5625-13.668-6.5625s-10.344 2.4141-13.668 6.5625c0 0-24.133 30.172-44.066 55.09-13.07 16.328-32.863 25.848-53.777 25.848h-0.015625c-16.398 0-32.078-6.6836-43.418-18.516-11.355-11.828-17.379-27.773-16.695-44.152 0.75391-17.973 1.5742-38.008 2.4492-59.098 0.40234-9.6602-7.1055-17.812-16.746-18.219-9.6406-0.40234-17.816 7.1055-18.219 16.75z"/>
  <path d="m349.96 315h-34.949c-19.336 0-35.016 15.68-35.016 35.016v0.019531c0 18.551 7.3672 36.348 20.492 49.473s30.922 20.492 49.473 20.492c9.6602 0 17.5-7.8398 17.5-17.5s-7.8398-17.5-17.5-17.5c-9.2734 0-18.164-3.6914-24.727-10.238-6.5469-6.5625-10.238-15.453-10.238-24.727l0.015625-0.035156h34.949c9.6602 0 17.5-7.8398 17.5-17.5s-7.8398-17.5-17.5-17.5z"/>
  <path d="m350 350 34.965 0.015625v0.019531c0 9.2734-3.6914 18.164-10.238 24.727-6.5625 6.5469-15.453 10.238-24.727 10.238-9.6602 0-17.5 7.8398-17.5 17.5s7.8398 17.5 17.5 17.5c18.551 0 36.348-7.3672 49.473-20.492s20.492-30.922 20.492-49.473v-0.019531c0-19.336-15.68-35.016-35.016-35.016h-34.949c-9.6602 0-17.5 7.8398-17.5 17.5s7.8398 17.5 17.5 17.5z"/>
  <path d="m349.96 420h0.035156c9.6602 0 17.5-7.8398 17.5-17.5s-7.8398-17.5-17.5-17.5h-0.035156c-9.6602 0-17.5 7.8398-17.5 17.5s7.8398 17.5 17.5 17.5z"/>
  <path d="m420 210c0 9.6641-7.8359 17.5-17.5 17.5s-17.5-7.8359-17.5-17.5 7.8359-17.5 17.5-17.5 17.5 7.8359 17.5 17.5"/>
  <path d="m315 210c0 9.6641-7.8359 17.5-17.5 17.5s-17.5-7.8359-17.5-17.5 7.8359-17.5 17.5-17.5 17.5 7.8359 17.5 17.5"/>
  <path d="m420 490c0 19.336-15.664 35-35 35h-70.035c-9.2734 0-18.164-3.6914-24.727-10.238-6.5469-6.5625-10.238-15.453-10.238-24.727 0-16.398-35-9.6953-35-0.035156v0.14062-0.10547c0 18.551 7.3672 36.348 20.492 49.473s30.922 20.492 49.473 20.492h70.035c38.656 0 70-31.344 70-70 0 16.484-35-9.6602-35 0z"/>
  <path d="m449.5 95.426s6.7734-13.352 14.648-28.855c11.023-21.719 34.492-34.18 58.66-31.168l58.852 7.3672c7.6133 0.94531 13.336 7.4219 13.336 15.102v0.035156c0 7.3516-3.6406 14.23-9.7305 18.34-6.0898 4.1328-13.824 4.9727-20.648 2.2227l-7.3672-2.9375c-22.926-9.1719-49.09 0.24219-60.902 21.926-6.5078 11.934-12.965 23.766-12.965 23.766-4.6211 8.4883-1.4883 19.129 6.9805 23.746 8.4883 4.6211 19.129 1.5078 23.746-6.9805l12.969-23.766c3.3242-6.125 10.711-8.7852 17.184-6.1953l7.3516 2.9414c17.605 7.0508 37.574 4.8984 53.27-5.7227 15.699-10.641 25.113-28.367 25.113-47.34v-0.035156c0-25.34-18.863-46.707-43.996-49.84-16.938-2.1172-38.902-4.8633-58.852-7.3477-38.816-4.8672-76.492 15.152-94.203 50.031-7.875 15.504-14.648 28.859-14.648 28.859-4.375 8.6094-0.94141 19.16 7.668 23.535 8.625 4.375 19.16 0.92969 23.535-7.6836z"/>
  <path d="m281.7 79.574s-6.7734-13.355-14.648-28.859c-17.711-34.879-55.387-54.898-94.203-50.031-19.949 2.4844-41.914 5.2305-58.852 7.3477-25.133 3.1328-43.996 24.5-43.996 49.84v0.035156c0 18.973 9.4141 36.699 25.113 47.34 15.695 10.621 35.664 12.773 53.27 5.7227l7.3516-2.9414c6.4727-2.5898 13.859 0.070312 17.184 6.1953l12.969 23.766c4.6172 8.4883 15.258 11.602 23.746 6.9805 8.4688-4.6172 11.602-15.258 6.9805-23.746 0 0-6.457-11.832-12.965-23.766-11.812-21.684-37.977-31.098-60.902-21.926l-7.3672 2.9375c-6.8242 2.75-14.559 1.9102-20.648-2.2227-6.0898-4.1094-9.7305-10.988-9.7305-18.34v-0.035156c0-7.6797 5.7227-14.156 13.336-15.102l58.852-7.3672c24.168-3.0117 47.637 9.4492 58.66 31.168 7.875 15.504 14.648 28.855 14.648 28.855 4.375 8.6133 14.91 12.059 23.535 7.6836 8.6094-4.375 12.043-14.926 7.668-23.535z"/>
  <path d="m183.75 280c0 9.6641-7.8359 17.5-17.5 17.5s-17.5-7.8359-17.5-17.5 7.8359-17.5 17.5-17.5 17.5 7.8359 17.5 17.5"/>
 </g>
</svg>
